<svg width="27" height="32" viewBox="0 0 27 32" fill="none" xmlns="http://www.w3.org/2000/svg">
<path d="M22.4515 17.0175C22.4142 12.9748 25.8466 11.008 26.0035 10.9165C24.0596 8.15316 21.0466 7.77561 19.9879 7.74551C17.4573 7.48586 15.0027 9.22186 13.7136 9.22186C12.3988 9.22186 10.4138 7.77059 8.27431 7.81324C5.52121 7.85463 2.94565 9.40875 1.53307 11.8221C-1.38213 16.7428 0.792053 23.9741 3.58503 27.9516C4.98217 29.8995 6.61473 32.0746 8.7516 31.998C10.8422 31.914 11.6231 30.6986 14.1459 30.6986C16.6455 30.6986 17.3788 31.998 19.5582 31.9491C21.8018 31.914 23.2144 29.9924 24.5626 28.0268C26.1772 25.7941 26.8256 23.5953 26.8513 23.4824C26.7986 23.4648 22.4939 21.863 22.4515 17.0175Z" fill="#08132D"/>
<path d="M18.3347 5.12897C19.4591 3.75798 20.2284 1.89279 20.0149 0C18.3875 0.0702427 16.3522 1.09754 15.1802 2.43842C14.1433 3.62001 13.217 5.5567 13.4563 7.37799C15.2844 7.51095 17.1614 6.47863 18.3347 5.12897Z" fill="#08132D"/>
</svg>
